<?xml version="1.0" encoding="UTF-8"?>
<svg width="18px" height="18px" viewBox="0 0 18 18" version="1.1" xmlns="http://www.w3.org/2000/svg" xmlns:xlink="http://www.w3.org/1999/xlink">
    <!-- Generator: Sketch 46.2 (44496) - http://www.bohemiancoding.com/sketch -->
    <title>下载@1x</title>
    <desc>Created with Sketch.</desc>
    <defs>
        <linearGradient x1="0%" y1="100%" x2="100%" y2="0%" id="linearGradient-1">
            <stop stop-color="#EE4F75" offset="0%"></stop>
            <stop stop-color="#B36EAD" offset="35.2060746%"></stop>
            <stop stop-color="#36A1DA" offset="66.4261798%"></stop>
            <stop stop-color="#3791CE" offset="100%"></stop>
        </linearGradient>
    </defs>
    <g id="Page-1" stroke="none" stroke-width="1" fill="none" fill-rule="evenodd">
        <g id="移动端1" transform="translate(-121.000000, -5598.000000)" fill-rule="nonzero" fill="#FFFFFF">
            <g id="Group-35" transform="translate(88.000000, 5585.000000)">
                <g id="Group-73" transform="translate(33.000000, 10.000000)">
                    <g id="Group-36-Copy">
                        <g id="Group-24" transform="translate(0.000000, 3.000000)">
                            <g id="下载">
                                <polygon id="Shape" points="9.64285715 15.5390786 9.64285715 7.71428572 8.35714285 7.71428572 8.35714285 15.5390786 6.561675 13.7435786 5.65261072 14.6526107 9 18 12.3473893 14.6526107 11.438325 13.7435786"></polygon>
                                <path d="M14.1007822,4.51382143 C13.790025,1.97125715 11.6266822,0 9,0 C6.37331785,0 4.209975,1.97125715 3.89921785,4.51382143 C1.72266428,4.65820715 0,6.46498928 0,8.67857143 C0,10.9863322 1.87081072,12.8571429 4.17857143,12.8571429 L6.42857143,12.8571429 L6.42857143,11.5714286 L4.17857143,11.5714286 C2.58335358,11.5714286 1.28571428,10.2737893 1.28571428,8.67857143 C1.28571428,7.1631 2.47098213,5.89683215 3.98458928,5.79702858 L5.04617143,5.7260893 L5.17548215,4.66952145 C5.41153928,2.74030715 7.0551,1.28571428 9,1.28571428 C10.9449,1.28571428 12.5884607,2.74030713 12.8244857,4.66948928 L12.9537964,5.72605713 L14.0153786,5.79699642 C15.5290178,5.89683215 16.7142857,7.1631 16.7142857,8.67857143 C16.7142857,10.2737893 15.4166464,11.5714286 13.8214286,11.5714286 L11.5714286,11.5714286 L11.5714286,12.8571429 L13.8214286,12.8571429 C16.1291893,12.8571429 18,10.9863322 18,8.67857143 C18,6.46498928 16.2773357,4.65820715 14.1007822,4.51382143 Z" id="Shape"></path>
                            </g>
                        </g>
                    </g>
                </g>
            </g>
        </g>
    </g>
</svg>