<?xml version="1.0" encoding="utf-8"?>
<!-- Generator: Adobe Illustrator 21.0.0, SVG Export Plug-In . SVG Version: 6.00 Build 0)  -->
<svg version="1.1" id="图层_1" xmlns="http://www.w3.org/2000/svg" xmlns:xlink="http://www.w3.org/1999/xlink" x="0px" y="0px"
	 viewBox="0 0 15 15" style="enable-background:new 0 0 15 15;" xml:space="preserve">
<style type="text/css">
	.st0{fill:#0856A7;}
</style>
<title>下载</title>
<desc>Created with Sketch.</desc>
<g id="Page-1">
	<g id="大会议程" transform="translate(-1087.000000, -1090.000000)">
		<g id="Group-72" transform="translate(276.000000, 562.000000)">
			<g id="Group-6" transform="translate(238.000000, 0.000000)">
				<g id="Group-29-Copy-2" transform="translate(547.000000, 524.000000)">
					<g id="Group-24" transform="translate(26.000000, 4.000000)">
						<g id="下载">
							<polygon id="Shape" class="st0" points="8,12.9 8,6.4 7,6.4 7,12.9 5.5,11.5 4.7,12.2 7.5,15 10.3,12.2 9.5,11.5 							"/>
							<path id="Shape_1_" class="st0" d="M11.8,3.8C11.5,1.6,9.7,0,7.5,0s-4,1.6-4.3,3.8C1.4,3.9,0,5.4,0,7.2
								c0,1.9,1.6,3.5,3.5,3.5h1.9V9.6H3.5c-1.3,0-2.4-1.1-2.4-2.4c0-1.3,1-2.3,2.2-2.4l0.9-0.1l0.1-0.9c0.2-1.6,1.6-2.8,3.2-2.8
								s3,1.2,3.2,2.8l0.1,0.9l0.9,0.1c1.3,0.1,2.2,1.1,2.2,2.4c0,1.3-1.1,2.4-2.4,2.4H9.6v1.1h1.9c1.9,0,3.5-1.6,3.5-3.5
								C15,5.4,13.6,3.9,11.8,3.8z"/>
						</g>
					</g>
				</g>
			</g>
		</g>
	</g>
</g>
</svg>
